<svg width="58" height="62" viewBox="0 0 58 62" fill="none" xmlns="http://www.w3.org/2000/svg">
<g filter="url(#filter0_d_5:10)">
<circle cx="28.5" cy="24.5" r="24.5" fill="#F66A15"/>
<g clip-path="url(#clip0_5:10)">
<path d="M39.713 16.077C39.4317 15.7394 39.0796 15.468 38.6815 15.2818C38.2835 15.0957 37.8494 14.9995 37.41 15H21.242L21.2 14.649C21.114 13.9194 20.7634 13.2467 20.2145 12.7585C19.6656 12.2702 18.9566 12.0003 18.222 12H18C17.7348 12 17.4804 12.1054 17.2929 12.2929C17.1054 12.4804 17 12.7348 17 13C17 13.2652 17.1054 13.5196 17.2929 13.7071C17.4804 13.8946 17.7348 14 18 14H18.222C18.4669 14 18.7033 14.09 18.8864 14.2527C19.0694 14.4155 19.1863 14.6397 19.215 14.883L20.591 26.583C20.7339 27.7998 21.3185 28.9218 22.2339 29.736C23.1493 30.5502 24.3319 31 25.557 31H36C36.2652 31 36.5196 30.8946 36.7071 30.7071C36.8946 30.5196 37 30.2652 37 30C37 29.7348 36.8946 29.4804 36.7071 29.2929C36.5196 29.1054 36.2652 29 36 29H25.557C24.9381 28.9983 24.3348 28.8051 23.8299 28.4471C23.3251 28.089 22.9433 27.5835 22.737 27H34.657C35.8293 27.0001 36.9643 26.5882 37.8638 25.8364C38.7633 25.0846 39.37 24.0407 39.578 22.887L40.363 18.533C40.4414 18.101 40.4237 17.6571 40.3114 17.2326C40.1991 16.8082 39.9948 16.4137 39.713 16.077ZM38.4 18.178L37.614 22.532C37.4891 23.225 37.1245 23.852 36.5839 24.3032C36.0433 24.7544 35.3612 25.0011 34.657 25H22.419L21.478 17H37.41C37.5569 16.9991 37.7022 17.0306 37.8355 17.0923C37.9689 17.1539 38.087 17.2441 38.1815 17.3566C38.276 17.4691 38.3446 17.601 38.3824 17.7429C38.4201 17.8849 38.4262 18.0334 38.4 18.178Z" fill="white"/>
<path d="M24.0001 36.0006C25.1047 36.0006 26.0001 35.1052 26.0001 34.0006C26.0001 32.8961 25.1047 32.0006 24.0001 32.0006C22.8956 32.0006 22.0001 32.8961 22.0001 34.0006C22.0001 35.1052 22.8956 36.0006 24.0001 36.0006Z" fill="white"/>
<path d="M34 36.0006C35.1046 36.0006 36 35.1052 36 34.0006C36 32.8961 35.1046 32.0006 34 32.0006C32.8954 32.0006 32 32.8961 32 34.0006C32 35.1052 32.8954 36.0006 34 36.0006Z" fill="white"/>
</g>
<circle cx="45" cy="45" r="9" fill="#FFAF19"/>
<path d="M43.8477 48H43.1211V43.1836L41.6641 43.7188V43.0625L43.7344 42.2852H43.8477V48ZM49.6914 48H45.9648V47.4805L47.9336 45.293C48.2253 44.9622 48.4258 44.694 48.5352 44.4883C48.6471 44.2799 48.7031 44.0651 48.7031 43.8438C48.7031 43.5469 48.6133 43.3034 48.4336 43.1133C48.2539 42.9232 48.0143 42.8281 47.7148 42.8281C47.3555 42.8281 47.0755 42.931 46.875 43.1367C46.6771 43.3398 46.5781 43.6237 46.5781 43.9883H45.8555C45.8555 43.4648 46.0234 43.0417 46.3594 42.7188C46.6979 42.3958 47.1497 42.2344 47.7148 42.2344C48.2435 42.2344 48.6615 42.3737 48.9688 42.6523C49.276 42.9284 49.4297 43.2969 49.4297 43.7578C49.4297 44.3177 49.0729 44.9844 48.3594 45.7578L46.8359 47.4102H49.6914V48Z" fill="black"/>
</g>
<defs>
<filter id="filter0_d_5:10" x="0" y="0" width="58" height="62" filterUnits="userSpaceOnUse" color-interpolation-filters="sRGB">
<feFlood flood-opacity="0" result="BackgroundImageFix"/>
<feColorMatrix in="SourceAlpha" type="matrix" values="0 0 0 0 0 0 0 0 0 0 0 0 0 0 0 0 0 0 127 0" result="hardAlpha"/>
<feOffset dy="4"/>
<feGaussianBlur stdDeviation="2"/>
<feComposite in2="hardAlpha" operator="out"/>
<feColorMatrix type="matrix" values="0 0 0 0 0 0 0 0 0 0 0 0 0 0 0 0 0 0 0.25 0"/>
<feBlend mode="normal" in2="BackgroundImageFix" result="effect1_dropShadow_5:10"/>
<feBlend mode="normal" in="SourceGraphic" in2="effect1_dropShadow_5:10" result="shape"/>
</filter>
<clipPath id="clip0_5:10">
<rect width="24" height="24" fill="white" transform="translate(17 12)"/>
</clipPath>
</defs>
</svg>
